<svg xmlns="http://www.w3.org/2000/svg" width="16" height="16" viewBox="0 0 16 16">
    <path fill="#FFF" fill-rule="evenodd" d="M11.06 2.649l.576-.574c.612-.612 1.679-.612 2.291 0l-.002-.002c.612.612.612 1.68 0 2.292l-.574.575L11.06 2.65zm-8.528 8.922l1.581.316.317 1.58-2.53.633.632-2.53zm1.999-1.233l-.967-.193L9.928 3.78l.581.58-5.978 5.977zm1.131 1.132l5.978-5.978.58.58-6.364 6.364-.194-.966zM15.058.942A3.2 3.2 0 0 0 12.781 0c-.86 0-1.67.334-2.277.943l-9.129 9.128a.799.799 0 0 0-.21.372L.023 15.006a.802.802 0 0 0 .97.97l4.565-1.141a.796.796 0 0 0 .371-.21l9.129-9.129A3.2 3.2 0 0 0 16 3.22c0-.86-.334-1.67-.943-2.277h.001z"/>
</svg>
