<svg xmlns="http://www.w3.org/2000/svg" width="20" height="20" viewBox="0 0 20 20">
    <path fill="#FFF" fill-rule="evenodd" d="M3.758 12.242A5.952 5.952 0 0 1 2 8c0-1.603.624-3.109 1.758-4.242A5.957 5.957 0 0 1 8 2c1.603 0 3.109.624 4.242 1.76A5.952 5.952 0 0 1 14 8a5.956 5.956 0 0 1-1.758 4.243A5.959 5.959 0 0 1 8 14a5.957 5.957 0 0 1-4.242-1.758zm15.898 6.051l-5.363-5.363A7.93 7.93 0 0 0 16 8a7.94 7.94 0 0 0-2.344-5.656A7.945 7.945 0 0 0 8 0a7.946 7.946 0 0 0-5.656 2.344A7.945 7.945 0 0 0 0 8c0 2.138.833 4.146 2.344 5.657A7.945 7.945 0 0 0 8 16c1.787 0 3.48-.589 4.872-1.663l5.37 5.37 1.414-1.414z"/>
</svg>
